<?xml version="1.0" encoding="utf-8"?>
<!-- Generator: Adobe Illustrator 24.1.0, SVG Export Plug-In . SVG Version: 6.00 Build 0)  -->
<svg version="1.1" id="Layer_1" xmlns="http://www.w3.org/2000/svg" xmlns:xlink="http://www.w3.org/1999/xlink" x="0px" y="0px"
	 viewBox="0 0 40 40" style="enable-background:new 0 0 40 40;" xml:space="preserve">
<style type="text/css">
	.st0{fill:#FF13DC;fill-opacity:0;}
	.st1{fill:#6E6E6E;}
</style>
<rect id="Canvas" x="2.1" y="2" class="st0" width="35" height="35"/>
<circle class="st1" cx="19.6" cy="19.5" r="4.1"/>
<path class="st1" d="M27.5,21c-0.8,4.4-4.9,7.3-9.3,6.5c-0.5-0.1-1.1-0.2-1.6-0.5l-4,6.4c7.7,3.9,17,0.8,20.9-6.9
	c0.9-1.7,1.4-3.6,1.6-5.6H27.5z"/>
<path class="st1" d="M21,11.6c1.6,0.3,3,1,4.1,2.1l6.1-4.4C28.7,6.3,25,4.4,21,4V11.6z"/>
<path class="st1" d="M33,11.7l-6.1,4.4c0.3,0.6,0.5,1.3,0.6,2H35C34.8,15.8,34.1,13.6,33,11.7z"/>
<path class="st1" d="M14.1,25.4c-3.3-3-3.5-8.1-0.6-11.3c1.2-1.3,2.8-2.2,4.5-2.5V4c-8.5,0.8-14.8,8.4-14,16.9
	c0.4,4.3,2.6,8.3,6.1,10.9L14.1,25.4z"/>
</svg>
