<?xml version="1.0" encoding="utf-8"?>
<!-- Generator: Adobe Illustrator 24.1.0, SVG Export Plug-In . SVG Version: 6.00 Build 0)  -->
<svg version="1.1" id="Layer_1" xmlns="http://www.w3.org/2000/svg" xmlns:xlink="http://www.w3.org/1999/xlink" x="0px" y="0px"
	 viewBox="0 0 40 40" style="enable-background:new 0 0 40 40;" xml:space="preserve">
<style type="text/css">
	.st0{fill:#FF13DC;fill-opacity:0;}
	.st1{fill:#6E6E6E;}
</style>
<rect id="Canvas" x="2" y="2" class="st0" width="36" height="36"/>
<path class="st1" d="M19.2,27.8h-2.1c-0.2-0.8-0.5-1.5-0.9-2.2l1.5-1.5c0.2-0.2,0.2-0.6,0-0.9l-0.9-0.9c-0.2-0.2-0.6-0.2-0.9,0
	l-1.5,1.5c-0.7-0.4-1.4-0.7-2.2-0.9v-2.1c0-0.3-0.3-0.6-0.6-0.6h-1.2c-0.3,0-0.6,0.3-0.6,0.6l0,0v2.1c-0.8,0.2-1.5,0.5-2.2,0.9
	l-1.5-1.5c-0.2-0.2-0.6-0.2-0.9,0l-0.9,0.9c-0.2,0.2-0.2,0.6,0,0.9l1.5,1.5c-0.4,0.7-0.7,1.4-0.9,2.2H2.8c-0.3,0-0.6,0.3-0.6,0.6
	c0,0,0,0,0,0l0,0v1.2c0,0.3,0.3,0.6,0.6,0.6c0,0,0,0,0,0h2.1c0.2,0.8,0.5,1.5,0.9,2.2l-1.5,1.5c-0.2,0.2-0.2,0.6,0,0.9l0.9,0.9
	c0.2,0.2,0.6,0.2,0.9,0l1.5-1.5c0.7,0.4,1.4,0.7,2.2,0.9v2.1c0,0.3,0.3,0.6,0.6,0.6h1.2c0.3,0,0.6-0.3,0.6-0.6v-2.1
	c0.8-0.2,1.5-0.5,2.2-0.9l1.5,1.5c0.2,0.2,0.6,0.2,0.9,0l0.9-0.9c0.2-0.2,0.2-0.6,0-0.9l-1.5-1.5c0.4-0.7,0.7-1.4,0.9-2.2h2.1
	c0.3,0,0.6-0.3,0.6-0.6l0,0v-1.2C19.8,28.1,19.5,27.8,19.2,27.8L19.2,27.8L19.2,27.8z M11,32.2c-1.7,0-3.2-1.4-3.2-3.2
	c0-1.7,1.4-3.2,3.2-3.2c1.7,0,3.2,1.4,3.2,3.2c0,0,0,0,0,0l0,0C14.2,30.7,12.7,32.2,11,32.2z"/>
<path class="st1" d="M37.4,16.9l-2.8-1.1c0.2-1.1,0.2-2.2,0-3.4l2.8-1.2c0.4-0.2,0.6-0.7,0.5-1.1l-0.7-1.7c-0.2-0.4-0.7-0.6-1.1-0.5
	v0l0,0l-2.8,1.2c-0.6-0.9-1.4-1.7-2.4-2.4l1.1-2.8c0.2-0.4,0-0.9-0.5-1.1l-1.6-0.7c-0.4-0.2-0.9,0-1.1,0.5l-1.1,2.8
	c-1.1-0.2-2.2-0.2-3.4,0L23,2.6c-0.2-0.4-0.7-0.6-1.1-0.5c0,0,0,0,0,0l0,0l-1.7,0.7c-0.4,0.2-0.6,0.7-0.5,1.1l1.2,2.8
	c-0.9,0.6-1.7,1.5-2.4,2.4l-2.8-1.1c-0.4-0.2-0.9,0-1.1,0.5L14,10.2c-0.2,0.4,0,0.9,0.5,1.1l2.8,1.1c-0.2,1.1-0.2,2.2,0,3.4L14.4,17
	c-0.4,0.2-0.6,0.7-0.5,1.1l0.7,1.7c0.2,0.4,0.7,0.6,1.1,0.5h0l0,0l2.8-1.2c0.6,0.9,1.5,1.7,2.4,2.4l-1.1,2.8c-0.2,0.4,0,0.9,0.5,1.1
	L22,26c0.4,0.2,0.9,0,1.1-0.5l1.1-2.8c1.1,0.2,2.2,0.2,3.4,0l1.2,2.8c0.2,0.4,0.7,0.6,1.1,0.5c0,0,0,0,0,0l0,0l1.7-0.7
	c0.4-0.2,0.6-0.7,0.5-1.1l-1.2-2.8c0.9-0.6,1.7-1.4,2.4-2.4l2.8,1.1c0.4,0.2,0.9,0,1.1-0.5l0,0l0.7-1.6C38,17.6,37.8,17.1,37.4,16.9
	C37.4,16.9,37.4,16.9,37.4,16.9L37.4,16.9z M25.9,18.3c-2.3,0-4.2-1.9-4.2-4.2c0-2.3,1.9-4.2,4.2-4.2c2.3,0,4.2,1.9,4.2,4.2v0
	C30.1,16.4,28.2,18.3,25.9,18.3z"/>
</svg>
