<?xml version="1.0" encoding="utf-8"?>
<!-- Generator: Adobe Illustrator 24.1.0, SVG Export Plug-In . SVG Version: 6.00 Build 0)  -->
<svg version="1.1" id="Layer_1" xmlns="http://www.w3.org/2000/svg" xmlns:xlink="http://www.w3.org/1999/xlink" x="0px" y="0px"
	 viewBox="0 0 40 40" style="enable-background:new 0 0 40 40;" xml:space="preserve">
<style type="text/css">
	.st0{fill:#FF13DC;fill-opacity:0;}
	.st1{fill:#6E6E6E;}
</style>
<rect id="Canvas" x="3" y="3" class="st0" width="35" height="35"/>
<path class="st1" d="M11.6,28.9l-1.6,1.7l-3.6-7l-3.4,2.6l1.4,2.3l1.2-1l4.4,8l3.8-5.1C13,30,12.3,29.5,11.6,28.9z"/>
<path class="st1" d="M25.4,21.8l2.8-3.3c0-1.1-0.2-2.1-0.7-3.1l-1.9,2.2L22.5,13c-0.1,0-0.1,0-0.2-0.1l-7.4,11
	c0.6,0.6,1.3,1.2,2.1,1.5l5.4-8L25.4,21.8z"/>
<path class="st1" d="M33.1,13.6l4.7-5.3l-1.9-1.8l-4.1,4.6C32.4,11.9,32.8,12.7,33.1,13.6z"/>
<path class="st1" d="M37.3,32.5l-7.3-7.3c3.7-5.3,2.3-12.6-3-16.3s-12.6-2.3-16.3,3s-2.3,12.6,3,16.3c4,2.8,9.3,2.8,13.3,0l7.3,7.3
	c0.9,0.8,2.2,0.7,3-0.2C38,34.4,38,33.2,37.3,32.5z M10.8,18.6c0-5.4,4.4-9.7,9.7-9.7s9.7,4.4,9.7,9.7s-4.4,9.7-9.7,9.7
	S10.8,23.9,10.8,18.6z"/>
</svg>
