<?xml version="1.0" encoding="utf-8"?>
<!-- Generator: Adobe Illustrator 24.1.0, SVG Export Plug-In . SVG Version: 6.00 Build 0)  -->
<svg version="1.1" id="Layer_1" xmlns="http://www.w3.org/2000/svg" xmlns:xlink="http://www.w3.org/1999/xlink" x="0px" y="0px"
	 viewBox="0 0 40 40" style="enable-background:new 0 0 40 40;" xml:space="preserve">
<style type="text/css">
	.st0{fill:#FF13DC;fill-opacity:0;}
	.st1{fill:#6E6E6E;}
</style>
<rect id="Canvas" x="2" y="2" class="st0" width="35.8" height="35.8"/>
<path class="st1" d="M37.3,20.9l-8.1,8.3c-0.4,0.4-1,0.4-1.4,0c0,0,0,0,0,0l0,0l-0.9-0.9c-0.4-0.4-0.4-1,0-1.4l6.9-7l-6.9-7
	c-0.4-0.4-0.4-1,0-1.4l0.9-0.9c0.4-0.4,1-0.4,1.4,0c0,0,0,0,0,0l0,0l8.1,8.3C37.8,19.4,37.8,20.3,37.3,20.9z"/>
<path class="st1" d="M2.5,18.8l8.1-8.3c0.4-0.4,1-0.4,1.4,0c0,0,0,0,0,0l0,0l0.9,0.9c0.4,0.4,0.4,1,0,1.4l-6.9,7l6.9,7
	c0.4,0.4,0.4,1,0,1.4l-0.9,0.9c-0.4,0.4-1,0.4-1.4,0c0,0,0,0,0,0l0,0l-8.1-8.3C1.9,20.3,1.9,19.4,2.5,18.8z"/>
<path class="st1" d="M17.4,31.5h-1.1c-0.5,0-1-0.4-1-1c0-0.1,0-0.2,0-0.3l6.2-22.9c0.1-0.4,0.5-0.7,1-0.7h1.1c0.5,0,1,0.4,1,1
	c0,0.1,0,0.2,0,0.3l-6.1,22.9C18.2,31.2,17.8,31.5,17.4,31.5z"/>
</svg>
