<?xml version="1.0" encoding="utf-8"?>
<!-- Generator: Adobe Illustrator 24.1.0, SVG Export Plug-In . SVG Version: 6.00 Build 0)  -->
<svg version="1.1" id="Layer_1" xmlns="http://www.w3.org/2000/svg" xmlns:xlink="http://www.w3.org/1999/xlink" x="0px" y="0px"
	 viewBox="0 0 40 40" style="enable-background:new 0 0 40 40;" xml:space="preserve">
<style type="text/css">
	.st0{fill:#FF13DC;fill-opacity:0;}
	.st1{fill:#6E6E6E;}
</style>
<rect id="Canvas" x="3.3" y="3" class="st0" width="33.7" height="33.7"/>
<path class="st1" d="M33.8,29.3c0,0.2-0.2,0.4-0.4,0.4c0,0,0,0,0,0h0l-8.2,0L19,36.6c-0.1,0.1-0.2,0.1-0.3,0.1
	c-0.2,0-0.4-0.2-0.4-0.4l0,0V14.7c0-0.2,0.2-0.4,0.4-0.4c0,0,0,0,0,0h0c0.1,0,0.2,0,0.3,0.1L33.7,29C33.8,29.1,33.8,29.2,33.8,29.3z
	 M13.6,30.8l2.7-4.7c0.1-0.2,0-0.5-0.2-0.6L15,24.9c-0.2-0.1-0.5-0.1-0.6,0.1l-2.7,4.7c-0.1,0.2,0,0.5,0.2,0.6L13,31
	C13.2,31.1,13.5,31,13.6,30.8z M26.2,10.4l2.7-4.7c0.1-0.2,0-0.5-0.2-0.6l-1.1-0.6c-0.2-0.1-0.5-0.1-0.6,0.1l-2.7,4.7
	c-0.1,0.2,0,0.5,0.2,0.6l1.1,0.6C25.8,10.6,26.1,10.6,26.2,10.4z M7,24.8l4.9-2.2c0.2-0.1,0.3-0.4,0.2-0.6l-0.5-1.2
	c-0.1-0.2-0.3-0.3-0.6-0.2l0,0l-4.9,2.2C5.9,23,5.9,23.2,6,23.4l0.5,1.2C6.6,24.8,6.8,24.9,7,24.8z M29.2,15.3l4.9-2.2
	c0.2-0.1,0.3-0.4,0.2-0.6l-0.5-1.2c-0.1-0.2-0.3-0.3-0.6-0.2l0,0l-4.9,2.2c-0.2,0.1-0.3,0.4-0.2,0.6l0.5,1.2
	C28.8,15.3,29,15.4,29.2,15.3C29.2,15.3,29.2,15.3,29.2,15.3L29.2,15.3z M5.6,15.8l5.3,1.1c0.2,0,0.5-0.1,0.5-0.3c0,0,0,0,0,0v0
	l0.3-1.2c0.1-0.2-0.1-0.5-0.3-0.5l-5.3-1.1c-0.2,0-0.5,0.1-0.5,0.3c0,0,0,0,0,0v0l-0.3,1.2C5.3,15.5,5.4,15.8,5.6,15.8z M29.1,21.1
	l5.3,1.1c0.2,0,0.5-0.1,0.5-0.3l0.3-1.2c0.1-0.2-0.1-0.5-0.3-0.5l0,0L29.6,19c-0.2,0-0.5,0.1-0.5,0.3c0,0,0,0,0,0v0l-0.3,1.2
	C28.8,20.8,28.9,21.1,29.1,21.1z M9.8,7.3l3.6,4c0.2,0.2,0.4,0.2,0.6,0l0.9-0.9c0.2-0.2,0.2-0.4,0-0.6l-3.6-4
	c-0.2-0.2-0.4-0.2-0.6,0L9.8,6.7C9.7,6.9,9.6,7.2,9.8,7.3z M17.9,3.6L18.4,9c0,0.2,0.2,0.4,0.5,0.4l1.3-0.1c0.2,0,0.4-0.2,0.4-0.5
	l0,0L20,3.4C20,3.1,19.8,3,19.5,3c0,0,0,0,0,0l0,0l-1.3,0.1C18,3.2,17.8,3.4,17.9,3.6L17.9,3.6z"/>
</svg>
