<?xml version="1.0" encoding="utf-8"?>
<!-- Generator: Adobe Illustrator 24.1.0, SVG Export Plug-In . SVG Version: 6.00 Build 0)  -->
<svg version="1.1" id="Layer_1" xmlns="http://www.w3.org/2000/svg" xmlns:xlink="http://www.w3.org/1999/xlink" x="0px" y="0px"
	 viewBox="0 0 40 40" style="enable-background:new 0 0 40 40;" xml:space="preserve">
<style type="text/css">
	.st0{fill:#FF13DC;fill-opacity:0;}
	.st1{fill:#6E6E6E;}
</style>
<rect id="Canvas" x="2" y="2" class="st0" width="36" height="36"/>
<path class="st1" d="M20,4C11.2,4,4,11.2,4,20s7.2,16,16,16s16-7.2,16-16S28.8,4,20,4z M19.7,8.3c1.5-0.1,2.8,1.1,2.9,2.6
	c0,0.1,0,0.2,0,0.3c0.1,1.5-1,2.7-2.4,2.9c-0.1,0-0.3,0-0.4,0c-1.5,0.1-2.8-1-2.9-2.5c0-0.1,0-0.2,0-0.3c-0.1-1.5,1.1-2.8,2.6-2.8
	C19.5,8.3,19.6,8.3,19.7,8.3z M24,29c0,0.6-0.4,1-1,1h-6c-0.6,0-1-0.4-1-1v-2c0-0.6,0.4-1,1-1h1v-6h-1c-0.6,0-1-0.4-1-1v-2
	c0-0.6,0.4-1,1-1h4c0.6,0,1,0.4,1,1v9h1c0.6,0,1,0.4,1,1V29z"/>
</svg>
