<?xml version="1.0" encoding="utf-8"?>
<!-- Generator: Adobe Illustrator 24.1.0, SVG Export Plug-In . SVG Version: 6.00 Build 0)  -->
<svg version="1.1" id="Layer_1" xmlns="http://www.w3.org/2000/svg" xmlns:xlink="http://www.w3.org/1999/xlink" x="0px" y="0px"
	 viewBox="0 0 40 40" style="enable-background:new 0 0 40 40;" xml:space="preserve">
<style type="text/css">
	.st0{fill:#FF13DC;fill-opacity:0;}
	.st1{fill:#6E6E6E;}
</style>
<rect id="Canvas" x="1" y="1" class="st0" width="35" height="35"/>
<path class="st1" d="M9,26.8c0,0.1,0.2,0.3,0.4,0.6c1.9,2.7,3.5,5.6,4.9,8.6h15.9c1.1-2.9,2.8-8.4,1.6-10.3
	c-0.6-0.6-1.5-1.1-2.4-1.2c-0.2-0.2-0.4-0.4-0.6-0.6c-0.5-0.6-1.2-1-1.9-1.2c-0.4,0-0.7,0-1.1,0c-0.5,0-1-0.2-1.3-0.7
	c-0.4-0.6-1.1-0.9-1.8-1.1c-0.7-0.1-1.1,0.4-1.6,0.3c-0.4-0.2-0.5-1.4-0.5-1.4v-8.1c0.1-1.1-0.6-2.1-1.7-2.3
	c-1.1-0.1-2.1,0.6-2.3,1.7c0,0.2,0,0.4,0,0.5v10.7c0,1.2-0.2,2.5-0.7,3.6c-0.1,0.2-0.6,0.8-0.8,1.1c-1.3-1-2.4-2.2-3.3-3.5
	c-0.5-1-1.4-1.9-2.4-2.4c-0.5-0.3-1.2-0.2-1.7,0.2c-1.4,0.8-0.2,2.8,0.8,4.4C8.7,26.3,8.8,26.6,9,26.8z"/>
<path class="st1" d="M18.5,2.5C13.3,2.5,9,6.7,9,11.9c0,3.2,1.6,6.2,4.4,8v-2.8c-2.9-2.8-2.9-7.4-0.1-10.3s7.4-2.9,10.3-0.1
	c2.9,2.8,2.9,7.4,0.1,10.3c0,0,0,0,0,0l-0.1,0.1v2.8c4.4-2.8,5.7-8.7,2.9-13.1C24.8,4.1,21.7,2.5,18.5,2.5z"/>
</svg>
