<svg id="Start" xmlns="http://www.w3.org/2000/svg" viewBox="0 0 396.66 246.75"><defs><style>.cls-1,.cls-25{fill:#fff;}.cls-2{fill:none;stroke:#bcbcbc;stroke-miterlimit:10;}.cls-3{font-size:48px;}.cls-3,.cls-7{font-family:AdobeClean-Regular, Adobe Clean;}.cls-4{letter-spacing:0.01em;}.cls-5{letter-spacing:0.05em;}.cls-6{letter-spacing:0em;}.cls-7{font-size:21px;fill:gray;}.cls-8{letter-spacing:0.01em;}.cls-9{letter-spacing:0.01em;}.cls-10{letter-spacing:0.01em;}.cls-11{letter-spacing:0.01em;}.cls-12{letter-spacing:0.05em;}.cls-13{letter-spacing:0.01em;}.cls-14{letter-spacing:0.01em;}.cls-15{letter-spacing:0.01em;}.cls-16{letter-spacing:0.02em;}.cls-17{letter-spacing:0.01em;}.cls-18{letter-spacing:-0.01em;}.cls-19{letter-spacing:0em;}.cls-20{letter-spacing:0.01em;}.cls-21{letter-spacing:0.02em;}.cls-22{letter-spacing:-0.01em;}.cls-23{letter-spacing:0.01em;}.cls-24{fill:#57b361;}.cls-25{font-size:16px;font-family:AdobeClean-BoldSemiCn, Adobe Clean;font-weight:700;}.cls-26{letter-spacing:0em;}.cls-27{letter-spacing:0.01em;}.cls-28{letter-spacing:0.01em;}</style></defs><title>Artboard 1</title><rect class="cls-1" width="396.66" height="246.75"/><rect class="cls-2" x="14.08" y="13.48" width="368.27" height="221.5" rx="12" ry="12"/><text class="cls-3" transform="translate(152.24 81.52)">S<tspan class="cls-4" x="22.94" y="0">t</tspan><tspan x="37.63" y="0">a</tspan><tspan class="cls-5" x="60.38" y="0">r</tspan><tspan class="cls-6" x="77.9" y="0">t</tspan></text><text class="cls-7" transform="translate(85.3 127.45)"><tspan class="cls-8">G</tspan><tspan class="cls-9" x="13.63" y="0">e</tspan><tspan x="24" y="0">t </tspan><tspan class="cls-10" x="35.01" y="0">s</tspan><tspan class="cls-11" x="43.11" y="0">t</tspan><tspan x="49.54" y="0">a</tspan><tspan class="cls-12" x="59.49" y="0">r</tspan><tspan x="67.16" y="0">t</tspan><tspan class="cls-13" x="73.31" y="0">e</tspan><tspan x="83.62" y="0">d </tspan><tspan class="cls-14" x="99.47" y="0">w</tspan><tspan class="cls-10" x="114.7" y="0">i</tspan><tspan class="cls-15" x="119.59" y="0">t</tspan><tspan x="125.89" y="0">h </tspan><tspan class="cls-16" x="142" y="0">c</tspan><tspan x="151.15" y="0">am</tspan><tspan class="cls-17" x="178.58" y="0">p</tspan><tspan x="189.79" y="0">a</tspan><tspan class="cls-18" x="199.75" y="0">i</tspan><tspan class="cls-19" x="204.22" y="0">g</tspan><tspan x="214.59" y="0">n </tspan><tspan x="56.53" y="25.2">o</tspan><tspan class="cls-10" x="67.6" y="25.2">r</tspan><tspan class="cls-20" x="74.44" y="25.2">c</tspan><tspan x="83.39" y="25.2">h</tspan><tspan class="cls-21" x="94.64" y="25.2">e</tspan><tspan class="cls-10" x="105.14" y="25.2">s</tspan><tspan class="cls-19" x="113.25" y="25.2">t</tspan><tspan x="119.49" y="25.2">r</tspan><tspan class="cls-22" x="126.16" y="25.2">a</tspan><tspan class="cls-23" x="135.97" y="25.2">t</tspan><tspan x="142.27" y="25.2">ion</tspan></text><rect class="cls-24" x="133.9" y="180.37" width="123.58" height="30.72"/><text class="cls-25" transform="translate(161.14 200.37)"><tspan class="cls-26">L</tspan><tspan x="7.63" y="0">ea</tspan><tspan class="cls-27" x="22.78" y="0">r</tspan><tspan x="28.21" y="0">n mo</tspan><tspan class="cls-28" x="61.1" y="0">r</tspan><tspan x="66.54" y="0">e</tspan></text></svg>