<?xml version="1.0" encoding="utf-8"?>
<!-- Generator: Adobe Illustrator 24.0.1, SVG Export Plug-In . SVG Version: 6.00 Build 0)  -->
<svg version="1.1" id="Layer_1" xmlns="http://www.w3.org/2000/svg" xmlns:xlink="http://www.w3.org/1999/xlink" x="0px" y="0px"
	 viewBox="0 0 74 74" style="enable-background:new 0 0 74 74;" xml:space="preserve">
<style type="text/css">
	.st0{fill:#2D50B3;fill-opacity:0;}
	.st1{fill:#2D50B3;}
</style>
<title>S MarketingActivities 18 N</title>
<rect id="Canvas" x="7" y="7" class="st0" width="60" height="60"/>
<path class="st1" d="M50.1,18.5c-0.7,0.9-1.5,1.6-2.5,2.2l6.5,7.9c0.7-0.9,1.6-1.6,2.6-2.1L50.1,18.5z M22,33.3l7.1,5.6
	c0.5-1,1.3-1.8,2.2-2.5l-7.2-5.7C23.6,31.7,22.9,32.6,22,33.3z M43.2,38.9c0.5,1,0.9,2.1,1,3.2l9.4-4.1c-0.6-0.9-1-2-1.2-3.1
	L43.2,38.9z M18.7,54.1c0.9,0.7,1.6,1.6,2.1,2.6l9.8-8c-0.8-0.8-1.5-1.7-1.9-2.7L18.7,54.1z M23.9,22.8c0.6,1,1,2.1,1.1,3.2
	l12.3-7.4c-0.7-0.9-1.2-1.9-1.5-3L23.9,22.8z"/>
<circle class="st1" cx="13.7" cy="60.3" r="6.4"/>
<circle class="st1" cx="36.2" cy="42.8" r="6.4"/>
<circle class="st1" cx="43.7" cy="13.7" r="6.4"/>
<circle class="st1" cx="17" cy="27" r="6.4"/>
<circle class="st1" cx="60.3" cy="33.7" r="6.4"/>
</svg>
