<?xml version="1.0" encoding="utf-8"?>
<!-- Generator: Adobe Illustrator 24.0.1, SVG Export Plug-In . SVG Version: 6.00 Build 0)  -->
<svg version="1.1" id="Layer_1" xmlns="http://www.w3.org/2000/svg" xmlns:xlink="http://www.w3.org/1999/xlink" x="0px" y="0px"
	 viewBox="0 0 74 74" style="enable-background:new 0 0 74 74;" xml:space="preserve">
<style type="text/css">
	.st0{fill:#2D50B3;fill-opacity:0;}
	.st1{fill:#2D50B3;}
</style>
<title>S LockClosed 18 N</title>
<rect id="Canvas" x="7" y="7" class="st0" width="60" height="60"/>
<path class="st1" d="M55.3,33.7h-1.7v-3.3c0-9.2-7.5-16.7-16.7-16.7s-16.7,7.5-16.7,16.7v3.3h-1.7c-0.9,0-1.7,0.7-1.7,1.7V62
	c0,0.9,0.7,1.7,1.7,1.7h36.7c0.9,0,1.7-0.7,1.7-1.7V35.3C57,34.4,56.3,33.7,55.3,33.7z M27,30.3c0-5.5,4.5-10,10-10s10,4.5,10,10
	v3.3H27V30.3z M40.3,50.7v4.6c0,0.9-0.7,1.7-1.7,1.7h-3.3c-0.9,0-1.7-0.7-1.7-1.7v-4.6c-2.1-1.8-2.2-5-0.4-7.1
	c1.8-2.1,5-2.2,7.1-0.4c2.1,1.8,2.2,5,0.4,7.1C40.6,50.4,40.5,50.6,40.3,50.7z"/>
</svg>
