<?xml version="1.0" encoding="utf-8"?>
<!-- Generator: Adobe Illustrator 24.0.1, SVG Export Plug-In . SVG Version: 6.00 Build 0)  -->
<svg version="1.1" id="Layer_1" xmlns="http://www.w3.org/2000/svg" xmlns:xlink="http://www.w3.org/1999/xlink" x="0px" y="0px"
	 viewBox="0 0 74 74" style="enable-background:new 0 0 74 74;" xml:space="preserve">
<style type="text/css">
	.st0{fill:#2D50B3;fill-opacity:0;}
	.st1{fill:#2D50B3;}
</style>
<title>S RealTimeCustomerProfile 18 N</title>
<rect id="Canvas" x="17" y="17" class="st0" width="40" height="40"/>
<path class="st1" d="M37,18.1c-10.4,0-18.9,8.5-18.9,18.9S26.6,55.9,37,55.9S55.9,47.4,55.9,37S47.4,18.1,37,18.1z M49.2,48.3
	c-1.9-1.9-4.3-3.1-6.9-3.5c-0.7-0.1-1.3-0.7-1.3-1.5v-2.1c0-0.3,0.1-0.7,0.4-0.9c1.6-2,2.5-4.4,2.5-6.9c0-5.2-2.8-8.2-7-8.2
	s-7.1,3-7.1,8.2c0.1,2.5,1,5,2.6,6.9c0.2,0.3,0.4,0.6,0.4,0.9v2.1c0,0.7-0.5,1.4-1.3,1.5c-2.6,0.3-5.1,1.5-6.9,3.4
	c-6.2-6.8-5.7-17.3,1.1-23.5s17.3-5.7,23.5,1.1C55.2,32.1,55.1,42,49.2,48.3L49.2,48.3z"/>
</svg>
