<?xml version="1.0" encoding="utf-8"?>
<!-- Generator: Adobe Illustrator 24.0.1, SVG Export Plug-In . SVG Version: 6.00 Build 0)  -->
<svg version="1.1" id="Layer_1" xmlns="http://www.w3.org/2000/svg" xmlns:xlink="http://www.w3.org/1999/xlink" x="0px" y="0px"
	 viewBox="0 0 74 74" style="enable-background:new 0 0 74 74;" xml:space="preserve">
<style type="text/css">
	.st0{fill:#2D50B3;fill-opacity:0;}
	.st1{fill:#2D50B3;}
</style>
<title>S RealTimeCustomerProfile 18 N</title>
<rect id="Canvas" x="7" y="7" class="st0" width="40" height="40"/>
<path class="st1" d="M37,8.7C21.4,8.7,8.7,21.4,8.7,37S21.4,65.3,37,65.3S65.3,52.6,65.3,37S52.6,8.7,37,8.7z M55.3,54
	c-2.8-2.8-6.4-4.7-10.4-5.2c-1.1-0.1-1.9-1.1-1.9-2.2v-3.2c0-0.5,0.2-1,0.6-1.4c2.4-2.9,3.8-6.6,3.8-10.4c0-7.9-4.2-12.3-10.5-12.3
	s-10.6,4.6-10.6,12.3c0.1,3.8,1.5,7.5,4,10.4c0.3,0.4,0.5,0.9,0.6,1.4v3.1c0,1.1-0.8,2-1.9,2.2c-3.9,0.5-7.6,2.3-10.4,5.1
	c-9.3-10.2-8.6-26,1.6-35.3s26-8.6,35.3,1.6C64.2,29.7,64.2,44.4,55.3,54L55.3,54z"/>
</svg>
