<?xml version="1.0" encoding="utf-8"?>
<!-- Generator: Adobe Illustrator 24.0.1, SVG Export Plug-In . SVG Version: 6.00 Build 0)  -->
<svg version="1.1" id="Layer_1" xmlns="http://www.w3.org/2000/svg" xmlns:xlink="http://www.w3.org/1999/xlink" x="0px" y="0px"
	 viewBox="0 0 74 74" style="enable-background:new 0 0 74 74;" xml:space="preserve">
<style type="text/css">
	.st0{fill:#2D50B3;fill-opacity:0;}
	.st1{fill:#2D50B3;}
</style>
<title>S Send 18 N</title>
<rect id="Canvas" x="7" y="7" class="st0" width="60" height="60"/>
<path class="st1" d="M62.3,15.5L10,31.1c-0.4,0.1-0.7,0.6-0.6,1c0.1,0.2,0.2,0.4,0.4,0.5l13.2,6.6L62.3,15.5z"/>
<path class="st1" d="M28.8,42.1l19.9,10c0.8,0.4,1.8,0.1,2.2-0.7l0,0l15.4-33.7L28.8,42.1z"/>
<path class="st1" d="M23.8,45.8v12.7c0,0.7,0.5,1.2,1.2,1.2c0.3,0,0.6-0.1,0.8-0.3l8.9-7.5L23.8,45.8z"/>
</svg>
