<?xml version="1.0" encoding="utf-8"?>
<!-- Generator: Adobe Illustrator 24.0.1, SVG Export Plug-In . SVG Version: 6.00 Build 0)  -->
<svg version="1.1" id="Layer_1" xmlns="http://www.w3.org/2000/svg" xmlns:xlink="http://www.w3.org/1999/xlink" x="0px" y="0px"
	 viewBox="0 0 74 74" style="enable-background:new 0 0 74 74;" xml:space="preserve">
<style type="text/css">
	.st0{fill:#2D50B3;fill-opacity:0;}
	.st1{fill:#2D50B3;}
</style>
<title>S Subscribe 18 N</title>
<rect id="Canvas" x="5.2" y="5" class="st0" width="61.7" height="60"/>
<polygon class="st1" points="49,43.7 68.8,58.5 68.8,35.5 68.8,28.8 "/>
<path class="st1" d="M45.6,46.2L39.3,51c-1.4,1-3.2,1-4.6,0l-6.4-4.8L5.2,63.3c0,0.9,0.8,1.7,1.8,1.6h60c0.9,0.1,1.6-0.5,1.8-1.3
	l0,0L45.6,46.2z"/>
<polygon class="st1" points="24.9,43.7 5.2,28.8 5.2,35.5 5.2,58.2 "/>
<path class="st1" d="M38.9,6.1c-1.1-0.7-2.6-0.7-3.8,0L5.2,25v4.6h10.6v-8.8c0-1,0.8-1.8,1.8-1.8h38.8c1,0,1.8,0.8,1.8,1.8v8.8h10.6
	V25L38.9,6.1z"/>
<path class="st1" d="M23.8,26.1h26.5c0.5,0,0.9,0.4,0.9,0.9v1.8c0,0.5-0.4,0.9-0.9,0.9H23.8c-0.5,0-0.9-0.4-0.9-0.9V27
	C22.9,26.5,23.3,26.1,23.8,26.1z"/>
<path class="st1" d="M43.8,40.2H30.2c-0.2,0-0.4-0.1-0.5-0.2l-3.3-2.6c-0.2-0.1-0.2-0.4-0.1-0.6c0.1-0.1,0.2-0.2,0.4-0.2h20.7
	c0.2,0,0.4,0.2,0.4,0.4c0,0.1-0.1,0.3-0.2,0.3l-3.3,2.6C44.1,40.2,44,40.2,43.8,40.2z"/>
</svg>
