<?xml version="1.0" encoding="utf-8"?>
<!-- Generator: Adobe Illustrator 24.0.1, SVG Export Plug-In . SVG Version: 6.00 Build 0)  -->
<svg version="1.1" id="Layer_1" xmlns="http://www.w3.org/2000/svg" xmlns:xlink="http://www.w3.org/1999/xlink" x="0px" y="0px"
	 viewBox="0 0 74 74" style="enable-background:new 0 0 74 74;" xml:space="preserve">
<style type="text/css">
	.st0{fill:#2D50B3;fill-opacity:0;}
	.st1{fill:#2D50B3;}
</style>
<title>S PeopleGroup 18 N</title>
<rect id="Canvas" x="7" y="7" class="st0" width="60" height="60"/>
<path class="st1" d="M30.3,18.3c2.6,2.6,6.7,2.5,9.3,0c2.6-2.6,2.5-6.7,0-9.3c-2.6-2.5-6.7-2.5-9.3,0c0.8,1.4,1.2,3,1.2,4.7
	C31.5,15.2,31.1,16.8,30.3,18.3z M35.3,22h-0.8c-0.8,0-1.5,0.1-2.3,0.2c2.5,2.3,4,5.5,3.9,8.9v15.7c0,2.4-1.9,4.3-4.3,4.3h-0.6
	l-1.4,14.6l0.1,0.6c0.1,0.5,0.5,0.8,0.9,0.8h8c0.5,0,0.9-0.3,0.9-0.8l1.7-18.5h3.7c0.5,0,0.9-0.4,0.9-0.9V31.1
	C46.2,25,41.3,22,35.3,22z"/>
<path class="st1" d="M44.5,18.3c2.6,2.6,6.7,2.5,9.3,0c2.6-2.6,2.5-6.7,0-9.3c-2.6-2.5-6.7-2.5-9.3,0c0.8,1.4,1.2,3,1.2,4.7
	C45.7,15.2,45.2,16.8,44.5,18.3z M49.5,22h-0.8c-0.8,0-1.5,0.1-2.3,0.2c2.5,2.3,4,5.5,3.9,8.9v15.7c0,2.4-1.9,4.3-4.3,4.3h-0.6
	l-1.4,14.6l0.1,0.6c0.1,0.5,0.5,0.8,0.9,0.8h8c0.5,0,0.9-0.3,0.9-0.8l1.7-18.5h3.7c0.5,0,0.9-0.4,0.9-0.9V31.1
	C60.3,25,55.5,22,49.5,22z"/>
<path class="st1" d="M28.2,13.6c0,3.6-2.9,6.6-6.6,6.6c-3.6,0-6.6-2.9-6.6-6.6C15,9.9,18,7,21.6,7C25.2,7,28.2,9.9,28.2,13.6
	L28.2,13.6z M22,22h-0.8c-6,0-10.9,3-10.9,9.1v15.7c0,0.5,0.4,0.9,0.9,0.9c0,0,0,0,0,0h3.6l1.7,18.5c0.1,0.5,0.5,0.8,0.9,0.8h8
	c0.5,0,0.9-0.3,0.9-0.8l1.7-18.5h3.7c0.5,0,0.9-0.4,0.9-0.9l0,0V31.1C32.8,25,28,22,22,22z"/>
</svg>
