<?xml version="1.0" encoding="utf-8"?>
<!-- Generator: Adobe Illustrator 24.0.1, SVG Export Plug-In . SVG Version: 6.00 Build 0)  -->
<svg version="1.1" id="Layer_1" xmlns="http://www.w3.org/2000/svg" xmlns:xlink="http://www.w3.org/1999/xlink" x="0px" y="0px"
	 viewBox="0 0 74 74" style="enable-background:new 0 0 74 74;" xml:space="preserve">
<style type="text/css">
	.st0{fill:#2D50B3;fill-opacity:0;}
	.st1{fill:#2D50B3;}
</style>
<title>S Workflow 18 N</title>
<rect id="Canvas" x="7" y="7" class="st0" width="60" height="60"/>
<path class="st1" d="M12,27h10c0.9,0,1.7,0.7,1.7,1.7V44c0,0.9-0.7,1.7-1.7,1.7H12c-0.9,0-1.7-0.7-1.7-1.7V28.7
	C10.3,27.7,11.1,27,12,27z"/>
<path class="st1" d="M55.3,13.7H62c0.9,0,1.7,0.7,1.7,1.7V22c0,0.9-0.7,1.7-1.7,1.7h-6.7c-0.9,0-1.7-0.7-1.7-1.7v-6.7
	C53.7,14.4,54.4,13.7,55.3,13.7z"/>
<path class="st1" d="M55.3,30.3H62c0.9,0,1.7,0.7,1.7,1.7v6.7c0,0.9-0.7,1.7-1.7,1.7h-6.7c-0.9,0-1.7-0.7-1.7-1.7V32
	C53.7,31.1,54.4,30.3,55.3,30.3z"/>
<path class="st1" d="M55.3,47H62c0.9,0,1.7,0.7,1.7,1.7v6.7c0,0.9-0.7,1.7-1.7,1.7h-6.7c-0.9,0-1.7-0.7-1.7-1.7v-6.7
	C53.7,47.7,54.4,47,55.3,47z"/>
<path class="st1" d="M50.3,19.5v-1.7c0-0.5-0.4-0.8-0.8-0.8H37.8c-0.5,0-0.8,0.4-0.8,0.8v15.8h-9.2c-0.5,0-0.8,0.4-0.8,0.8v1.7
	c0,0.5,0.4,0.8,0.8,0.8H37v15.8c0,0.5,0.4,0.8,0.8,0.8h11.7c0.5,0,0.8-0.4,0.8-0.8v-1.7c0-0.5-0.4-0.8-0.8-0.8h-9.2V37h9.2
	c0.5,0,0.8-0.4,0.8-0.8v-1.7c0-0.5-0.4-0.8-0.8-0.8h-9.2V20.3h9.2C50,20.3,50.3,20,50.3,19.5z"/>
</svg>
