<?xml version="1.0" encoding="utf-8"?>
<!-- Generator: Adobe Illustrator 24.1.0, SVG Export Plug-In . SVG Version: 6.00 Build 0)  -->
<svg version="1.1" id="Layer_1" xmlns="http://www.w3.org/2000/svg" xmlns:xlink="http://www.w3.org/1999/xlink" x="0px" y="0px"
	 viewBox="0 0 40 40" style="enable-background:new 0 0 40 40;" xml:space="preserve">
<style type="text/css">
	.st0{fill:#FF13DC;fill-opacity:0;}
	.st1{fill:#6E6E6E;}
</style>
<rect id="Canvas" x="3" y="3.1" class="st0" width="33.9" height="33.9"/>
<path class="st1" d="M16.4,31.7c0.4-0.6,0.7-1.3,0.8-2.1H18c-0.1-0.8-0.1-1.5,0-2.3h-0.8c-0.1-0.7-0.4-1.4-0.8-2.1l1.4-1.4
	c0.2-0.2,0.2-0.6,0-0.8l0,0l-0.9-0.9c-0.2-0.2-0.6-0.2-0.8,0l-1.4,1.4c-0.6-0.4-1.3-0.7-2.1-0.8v-2c0-0.3-0.3-0.6-0.6-0.6h-1.1
	c-0.3,0-0.6,0.3-0.6,0.6l0,0v2c-0.7,0.1-1.4,0.4-2.1,0.8l-1.4-1.4c-0.2-0.2-0.6-0.2-0.8,0l-0.9,0.9c-0.2,0.2-0.2,0.6,0,0.8
	c0,0,0,0,0,0l0,0l1.4,1.4c-0.4,0.6-0.7,1.3-0.8,2.1h-2c-0.3,0-0.6,0.3-0.6,0.6c0,0,0,0,0,0v1.1c0,0.3,0.3,0.6,0.6,0.6h2
	c0.1,0.7,0.4,1.4,0.8,2.1l-1.4,1.4c-0.2,0.2-0.2,0.6,0,0.8c0,0,0,0,0,0l0,0l0.9,0.9c0.2,0.2,0.6,0.2,0.8,0l1.4-1.4
	c0.6,0.4,1.3,0.7,2.1,0.8v2c0,0.3,0.3,0.6,0.6,0.6h1.1c0.3,0,0.6-0.3,0.6-0.6v-2c0.7-0.1,1.4-0.4,2.1-0.8l1.4,1.4
	c0.2,0.2,0.6,0.2,0.8,0l0.9-0.9c0.2-0.2,0.2-0.6,0-0.8l0,0L16.4,31.7z M11.5,31.5c-1.6,0-3-1.3-3-3c0-1.6,1.3-3,3-3c1.6,0,3,1.3,3,3
	c0,0,0,0,0,0l0,0C14.5,30.2,13.1,31.5,11.5,31.5z"/>
<path class="st1" d="M20.8,21.3c1.3-1.3,2.9-2.3,4.6-2.9c-2.2-0.1-3.9-1.9-3.8-4.1c0.1-2.2,1.9-3.9,4.1-3.8c2.2,0.1,3.9,1.9,3.8,4.1
	c0,1.5-0.9,2.8-2.3,3.5c2.6-0.3,5.2,0.3,7.4,1.9l0.6,0.2c0.4,0.2,0.9,0,1.1-0.4l0,0l0.6-1.5c0.2-0.4,0-0.9-0.4-1.1L33.7,16
	c0.2-1,0.2-2.1,0-3.2l2.7-1.1c0.4-0.2,0.6-0.7,0.4-1.1l-0.7-1.6c-0.2-0.4-0.7-0.6-1.1-0.4l-2.7,1.1c-0.6-0.9-1.4-1.6-2.3-2.2
	l1.1-2.6c0.2-0.4,0-0.9-0.4-1.1c0,0,0,0,0,0l0,0l-1.5-0.6c-0.4-0.2-0.9,0-1.1,0.4l-1.1,2.6c-1-0.2-2.1-0.2-3.2,0l-1.1-2.6
	c-0.2-0.4-0.7-0.6-1.1-0.4l-1.6,0.7c-0.4,0.2-0.6,0.7-0.4,1.1l1.1,2.7c-0.9,0.6-1.6,1.4-2.2,2.3L16,8.8c-0.4-0.2-0.9,0-1.1,0.4l0,0
	l-0.6,1.5c-0.2,0.4,0,0.9,0.4,1.1l2.6,1.1c-0.2,1-0.2,2.1,0,3.2l-2.7,1.1c-0.4,0.2-0.6,0.7-0.4,1.1l0.7,1.6c0.2,0.4,0.7,0.6,1.1,0.4
	l0,0l2.6-1.1C19.3,20,20,20.7,20.8,21.3z"/>
<path class="st1" d="M28.5,20.1c-4.6,0-8.4,3.8-8.4,8.4s3.8,8.4,8.4,8.4s8.4-3.8,8.4-8.4S33.1,20.1,28.5,20.1L28.5,20.1z M33.2,29
	c0,0.3-0.2,0.5-0.5,0.5h-3.3v3.3c0,0.3-0.2,0.5-0.5,0.5H28c-0.3,0-0.5-0.2-0.5-0.5v-3.3h-3.3c-0.3,0-0.5-0.2-0.5-0.5V28
	c0-0.3,0.2-0.5,0.5-0.5h3.3v-3.3c0-0.3,0.2-0.5,0.5-0.5h0.9c0.3,0,0.5,0.2,0.5,0.5v3.3h3.3c0.3,0,0.5,0.2,0.5,0.5V29z"/>
</svg>
