<?xml version="1.0" encoding="utf-8"?>
<!-- Generator: Adobe Illustrator 24.1.0, SVG Export Plug-In . SVG Version: 6.00 Build 0)  -->
<svg version="1.1" id="Layer_1" xmlns="http://www.w3.org/2000/svg" xmlns:xlink="http://www.w3.org/1999/xlink" x="0px" y="0px"
	 viewBox="0 0 40 40" style="enable-background:new 0 0 40 40;" xml:space="preserve">
<style type="text/css">
	.st0{fill:#FF13DC;fill-opacity:0;}
	.st1{fill:#6E6E6E;}
</style>
<rect id="Canvas" x="3.1" y="4" class="st0" width="34" height="34"/>
<path class="st1" d="M18.2,35.2c0,0.5,0.4,0.9,0.9,0.9H21c0.5,0,0.9-0.4,0.9-0.9v-8.5h-3.8V35.2z"/>
<path class="st1" d="M31,14.5c-0.2,0-0.5,0-0.7,0c1.1-4.1-1.3-8.3-5.3-9.5s-8.3,1.3-9.5,5.3c-0.1,0.3-0.2,0.7-0.2,1.1
	c-3.5-0.9-7,1.1-7.9,4.6c-0.3,1.1-0.3,2.2,0,3.3c-2-0.3-3.9,1-4.2,3s1,3.9,3,4.2c0.2,0,0.4,0.1,0.6,0.1h11.5V21h-4.1
	c-0.4,0-0.7-0.3-0.7-0.7l0,0c0-0.2,0.1-0.3,0.2-0.5l6.1-5.4c0.2-0.2,0.4-0.2,0.6,0l6.1,5.4c0.1,0.1,0.2,0.3,0.2,0.5
	c0,0.4-0.3,0.7-0.7,0.7h0H22v5.7h9c3.4,0,6-2.8,6-6.1C36.9,17.2,34.3,14.6,31,14.5z"/>
</svg>
