<?xml version="1.0" encoding="utf-8"?>
<!-- Generator: Adobe Illustrator 24.1.0, SVG Export Plug-In . SVG Version: 6.00 Build 0)  -->
<svg version="1.1" id="Layer_1" xmlns="http://www.w3.org/2000/svg" xmlns:xlink="http://www.w3.org/1999/xlink" x="0px" y="0px"
	 viewBox="0 0 40 40" style="enable-background:new 0 0 40 40;" xml:space="preserve">
<style type="text/css">
	.st0{fill:#FF13DC;fill-opacity:0;}
	.st1{fill:#6E6E6E;}
</style>
<rect id="Canvas" x="2" y="3" class="st0" width="35" height="35"/>
<path class="st1" d="M34.3,8L3.8,17.1c-0.3,0.1-0.4,0.3-0.3,0.6c0,0.1,0.1,0.2,0.2,0.3l7.7,3.8L34.3,8z"/>
<path class="st1" d="M14.7,23.4l11.6,5.8c0.5,0.2,1.1,0,1.3-0.4l0,0l9-19.7L14.7,23.4z"/>
<path class="st1" d="M11.8,25.6V33c0,0.4,0.3,0.7,0.7,0.7c0.2,0,0.3-0.1,0.4-0.2l5.2-4.4L11.8,25.6z"/>
</svg>
