<?xml version="1.0" encoding="utf-8"?>
<!-- Generator: Adobe Illustrator 24.1.0, SVG Export Plug-In . SVG Version: 6.00 Build 0)  -->
<svg version="1.1" id="Layer_1" xmlns="http://www.w3.org/2000/svg" xmlns:xlink="http://www.w3.org/1999/xlink" x="0px" y="0px"
	 viewBox="0 0 40 40" style="enable-background:new 0 0 40 40;" xml:space="preserve">
<style type="text/css">
	.st0{fill:#FF13DC;fill-opacity:0;}
	.st1{fill:#6E6E6E;}
</style>
<rect id="Canvas" x="3" y="3" class="st0" width="35" height="35"/>
<path class="st1" d="M34.1,21c-1.2,0-2.2,0.6-2.9,1.6l-4.9-1.4c0-0.2,0-0.4,0-0.6c0-2-1-3.8-2.7-4.9l2.3-5.3c0.1,0,0.3,0,0.4,0
	c1.9,0,3.4-1.5,3.4-3.4c0-1.9-1.5-3.4-3.4-3.4c-1.9,0-3.4,1.5-3.4,3.4c0,1,0.4,2,1.2,2.6l-2.3,5.3c-1.6-0.4-3.4-0.1-4.8,0.9L9.9,8.5
	c0.9-1.7,0.3-3.7-1.4-4.6S4.8,3.6,3.9,5.3S3.6,9,5.3,9.9c1,0.5,2.2,0.5,3.2,0l7.2,7.2c-1.3,1.9-1.4,4.4-0.3,6.4l-5.8,4.9
	c-1.6-1-3.7-0.6-4.7,1C4,30.9,4.4,33,6,34c1.6,1,3.7,0.6,4.7-1c0.6-1,0.7-2.2,0.3-3.2l5.8-4.9c1.6,1.3,3.8,1.7,5.7,1l2.9,5.2
	c-1.3,1.3-1.3,3.5,0.1,4.8c1.3,1.3,3.5,1.3,4.8-0.1s1.3-3.5-0.1-4.8c-0.8-0.8-2-1.1-3.1-0.9l-2.9-5.2c0.7-0.5,1.2-1.2,1.6-2l4.9,1.4
	c0,1.9,1.6,3.4,3.4,3.4c1.9,0,3.4-1.6,3.4-3.4C37.5,22.5,36,21,34.1,21z M26.3,4.9c1.1,0,1.9,0.9,1.9,1.9s-0.9,1.9-1.9,1.9
	c-1.1,0-1.9-0.9-1.9-1.9S25.3,4.9,26.3,4.9z M6.9,8.8C5.8,8.8,4.9,8,4.9,6.9s0.9-1.9,1.9-1.9s1.9,0.9,1.9,1.9S8,8.8,6.9,8.8z
	 M7.9,33.1c-1.1,0-1.9-0.9-1.9-1.9s0.9-1.9,1.9-1.9s1.9,0.9,1.9,1.9S8.9,33.1,7.9,33.1z M27.8,31.7c1.1,0,1.9,0.9,1.9,1.9
	s-0.9,1.9-1.9,1.9c-1.1,0-1.9-0.9-1.9-1.9S26.7,31.7,27.8,31.7z M34.1,26.3c-1.1,0-1.9-0.9-1.9-1.9c0-1.1,0.9-1.9,1.9-1.9
	s1.9,0.9,1.9,1.9C36.1,25.5,35.2,26.3,34.1,26.3z"/>
</svg>
