<?xml version="1.0" encoding="utf-8"?>
<!-- Generator: Adobe Illustrator 24.1.0, SVG Export Plug-In . SVG Version: 6.00 Build 0)  -->
<svg version="1.1" id="Layer_1" xmlns="http://www.w3.org/2000/svg" xmlns:xlink="http://www.w3.org/1999/xlink" x="0px" y="0px"
	 viewBox="0 0 40 40" style="enable-background:new 0 0 40 40;" xml:space="preserve">
<style type="text/css">
	.st0{fill:#FF13DC;fill-opacity:0;}
	.st1{fill:#6E6E6E;}
</style>
<rect id="Canvas" class="st0" width="39" height="39"/>
<path class="st1" d="M15.2,8.7h-13V5.4c0-0.6,0.5-1.1,1.1-1.1h7.1c0.3,0,0.6,0.1,0.8,0.3L15.2,8.7z"/>
<path class="st1" d="M35.8,10.8H2.2v22.8c0,0.6,0.5,1.1,1.1,1.1h32.5c0.6,0,1.1-0.5,1.1-1.1V11.9C36.8,11.3,36.3,10.8,35.8,10.8z
	 M10.8,29.8c0,0.3-0.2,0.5-0.5,0.5H7c-0.3,0-0.5-0.2-0.5-0.5V15.7c0-0.3,0.2-0.5,0.5-0.5h3.3c0.3,0,0.5,0.2,0.5,0.5V29.8z
	 M17.3,29.8c0,0.3-0.2,0.5-0.5,0.5h-3.2c-0.3,0-0.5-0.2-0.5-0.5V20c0-0.3,0.2-0.5,0.5-0.5h3.2c0.3,0,0.5,0.2,0.5,0.5V29.8z
	 M23.8,29.8c0,0.3-0.2,0.5-0.5,0.5H20c-0.3,0-0.5-0.2-0.5-0.5v-5.4c0-0.3,0.2-0.5,0.5-0.5h3.2c0.3,0,0.5,0.2,0.5,0.5V29.8z
	 M30.3,29.8c0,0.3-0.2,0.5-0.5,0.5h-3.2c-0.3,0-0.5-0.2-0.5-0.5v-1.1c0-0.3,0.2-0.5,0.5-0.5h3.2c0.3,0,0.5,0.2,0.5,0.5V29.8z"/>
</svg>
