<?xml version="1.0" encoding="utf-8"?>
<!-- Generator: Adobe Illustrator 24.1.0, SVG Export Plug-In . SVG Version: 6.00 Build 0)  -->
<svg version="1.1" id="Layer_1" xmlns="http://www.w3.org/2000/svg" xmlns:xlink="http://www.w3.org/1999/xlink" x="0px" y="0px"
	 viewBox="0 0 40 40" style="enable-background:new 0 0 40 40;" xml:space="preserve">
<style type="text/css">
	.st0{fill:#FF13DC;fill-opacity:0;}
	.st1{fill:#6E6E6E;}
</style>
<rect id="Canvas" x="2" y="3" class="st0" width="35" height="35"/>
<path class="st1" d="M26.8,23.7l-3.1,3.1l8.5,8.5c0.5,0.5,1.4,0.5,1.9,0c0,0,0,0,0,0l0,0l1.2-1.2c0.5-0.5,0.5-1.4,0-1.9c0,0,0,0,0,0
	l0,0L26.8,23.7z"/>
<path class="st1" d="M8.5,22l1.4-1.4c0.5-0.5,0-1.3,0-1.3l1.5-1.4c0.5,0.5,1.4,0.5,1.9,0l0.8-0.8l1.5,1.5l3.1-3.1L17.1,14l0.5-0.5
	c0.5-0.5,0.5-1.4,0-1.9c0,0,0,0,0,0l0,0L17,11c0,0,1.8-2.1,2.2-2.4c1.6-1.6,5.2-0.6,5.4-1.4s-8-3.9-12.4,0.5l-4.6,4.6
	c-0.5,0.5-0.5,1.4,0,1.9l0,0l0.3,0.3l-1.4,1.4c-0.3-0.4-0.9-0.4-1.2-0.1l0,0l-1.4,1.4c-0.3,0.3-0.3,0.7,0,0.9L7.5,22
	C7.8,22.2,8.2,22.2,8.5,22C8.5,22,8.5,22,8.5,22L8.5,22z"/>
<path class="st1" d="M12.7,32.7c-1.5,0.6-3.4,1.2-4.8,1.7l1.7-4.8L12.7,32.7z M30.4,7L8.7,28.8c-0.1,0.1-0.2,0.3-0.3,0.4l-2.1,5.7
	c-0.2,0.4,0,0.9,0.4,1.1c0.2,0.1,0.4,0.1,0.6,0l5.7-2c0.2-0.1,0.3-0.1,0.4-0.3l21.8-21.8c0.4-0.3,0.4-0.9,0.1-1.3L31.7,7
	C31.3,6.6,30.8,6.7,30.4,7z"/>
</svg>
